<svg width="32" height="32" viewBox="0 0 24 24" fill="none" xmlns="http://www.w3.org/2000/svg">
  
    <path
      d="M11.3 20.4c-.3-.4-.6-1.1-1.2-2-.3-.5-1.2-1.5-1.5-1.9-.2-.4-.2-.6-.1-1 .1-.6.7-1.1 1.4-1.1.5 0 1 .4 1.4.7.2.2.5.6.7.8.2.2.2.3.4.5.2.3.3.5.2.1-.1-.5-.2-1.3-.4-2.1-.1-.6-.2-.7-.3-1.1-.1-.5-.2-.8-.3-1.3-.1-.3-.2-1.1-.3-1.5-.1-.5-.1-1.4.3-1.8.3-.3.9-.4 1.3-.2.5.3.8 1 .9 1.3.2.5.4 1.2.5 2 .2 1 .5 2.5.5 2.8 0-.4-.1-1.1 0-1.5.1-.3.3-.7.7-.8.3-.1.6-.1.9-.1.3.1.6.3.8.5.4.6.4 1.9.4 1.8.1-.4.1-1.2.3-1.6.1-.2.5-.4.7-.5.3-.1.7-.1 1 0 .2 0 .6.3.7.5.2.3.3 1.3.4 1.7 0 .1.1-.4.3-.7.4-.6 1.8-.8 1.9.6 0 .7 0 .6 0 1.1 0 .5 0 .8 0 1.2 0 .4-.1 1.3-.2 1.7-.1.3-.4 1-.7 1.4 0 0-1.1 1.2-1.2 1.8-.1.6-.1.6-.1 1 0 .4.1.9.1.9s-.8.1-1.2 0c-.4-.1-.9-.8-1-1.1-.2-.3-.5-.3-.7 0-.2.4-.7 1.1-1.1 1.1-.7.1-2.1 0-3.1 0 0 0 .2-1-.2-1.4-.3-.3-.8-.8-1.1-1.1z"
      fill="#ffffff"
      stroke="#000"
      stroke-width="1.25"
      stroke-linecap="round"
      stroke-linejoin="round"
    />
    <path d="M19.6 20.7v-3.4M17.6 20.7v-3.4M15.6 20.7v-3.4" stroke="#000000" stroke-width="1.1" stroke-linecap="round"/>
  
</svg>
